# Exported from ProBuilder
# http://www.procore3d.com/probuilder
# 4/6/2019 12:14:18 PM

mtllib ./0_0.mtl
o 0_0

g 0_0
v -0.5 0 0
v 0 0 0.5
v 0 0.5 0
v 0 0 0.5
v 0.5 0 -4.371139E-08
v 0 0.5 0
v 0.5 0 -4.371139E-08
v 0 0 -0.5
v 0 0.5 0
v 0 0 -0.5
v -0.5 0 0
v 0 0.5 0
v -0.5 0 0
v 0 0 -0.5
v 0 -0.5 0
v 0 0 -0.5
v 0.5 0 4.371139E-08
v 0 -0.5 0
v 0.5 0 4.371139E-08
v 0 0 0.5
v 0 -0.5 0
v 0 0 0.5
v -0.5 0 0
v 0 -0.5 0

vn -0.5773503 0.5773503 0.5773503
vn -0.5773503 0.5773503 0.5773503
vn -0.5773503 0.5773503 0.5773503
vn 0.5773503 0.5773503 0.5773503
vn 0.5773503 0.5773503 0.5773503
vn 0.5773503 0.5773503 0.5773503
vn 0.5773502 0.5773503 -0.5773503
vn 0.5773502 0.5773503 -0.5773503
vn 0.5773502 0.5773503 -0.5773503
vn -0.5773503 0.5773503 -0.5773503
vn -0.5773503 0.5773503 -0.5773503
vn -0.5773503 0.5773503 -0.5773503
vn -0.5773503 -0.5773503 -0.5773503
vn -0.5773503 -0.5773503 -0.5773503
vn -0.5773503 -0.5773503 -0.5773503
vn 0.5773503 -0.5773503 -0.5773503
vn 0.5773503 -0.5773503 -0.5773503
vn 0.5773503 -0.5773503 -0.5773503
vn 0.5773502 -0.5773503 0.5773503
vn 0.5773502 -0.5773503 0.5773503
vn 0.5773502 -0.5773503 0.5773503
vn -0.5773503 -0.5773503 0.5773503
vn -0.5773503 -0.5773503 0.5773503
vn -0.5773503 -0.5773503 0.5773503

vt 0 0
vt 0.7071068 0
vt 0.3535534 0.6123725
vt -2.980232E-08 -0.4082483
vt 0.7071068 -0.4082483
vt 0.3535534 0.2041242
vt -0.7071067 -0.4082483
vt 0 -0.4082483
vt -0.3535534 0.2041242
vt -0.7071068 0
vt 0 0
vt -0.3535534 0.6123725
vt 0 0
vt 0.7071068 0
vt 0.3535534 0.6123725
vt -2.980232E-08 -0.4082483
vt 0.7071068 -0.4082483
vt 0.3535534 0.2041242
vt -0.7071067 -0.4082483
vt 0 -0.4082483
vt -0.3535534 0.2041242
vt -0.7071068 0
vt 0 0
vt -0.3535534 0.6123725

g 0_0
usemtl Default_Prototype
f 1/1/1 2/2/2 3/3/3
f 4/4/4 5/5/5 6/6/6
f 7/7/7 8/8/8 9/9/9
f 10/10/10 11/11/11 12/12/12
f 13/13/13 14/14/14 15/15/15
f 16/16/16 17/17/17 18/18/18
f 19/19/19 20/20/20 21/21/21
f 22/22/22 23/23/23 24/24/24

