# Exported from ProBuilder
# http://www.procore3d.com/probuilder
# 4/6/2019 12:14:41 PM

mtllib ./2_1.mtl
o 2_1

g 2_1
v 0.5 -0.5 0.5
v -0.5 -0.5 0.5
v 0.5 0.5 0.5
v -0.5 -0.5 0.5
v 0.5 0.5 0.5
v 0.5 0.5 0.5
v -0.5 -0.5 0.5
v -0.5 -0.5 -0.5
v 0.5 0.5 0.5
v -0.5 -0.5 -0.5
v 0.5 0.5 -0.5
v 0.5 0.5 0.5
v -0.5 -0.5 -0.5
v 0.5 -0.5 -0.5
v 0.5 0.5 -0.5
v 0.5 -0.5 -0.5
v 0.5 0.5 -0.5
v 0.5 0.5 -0.5
v 0.5 0.5 0.5
v 0.5 0.5 0.5
v 0.5 0.5 -0.5
v 0.5 0.5 0.5
v 0.5 0.5 -0.5
v 0.5 0.5 -0.5

vn 0 0 1
vn 0 0 1
vn 0 0 1
vn 0 0 0
vn 0 0 0
vn 0 0 0
vn -0.7071068 0.7071068 0
vn -0.7071068 0.7071068 0
vn -0.7071068 0.7071068 0
vn -0.7071068 0.7071068 0
vn -0.7071068 0.7071068 0
vn -0.7071068 0.7071068 0
vn 0 0 -1
vn 0 0 -1
vn 0 0 -1
vn 0 0 0
vn 0 0 0
vn 0 0 0
vn 0 0 0
vn 0 0 0
vn 0 0 0
vn 0 0 0
vn 0 0 0
vn 0 0 0

vt 0.5 -0.5
vt -0.5 -0.5
vt 0.5 0.5
vt 0 0
vt 0 0
vt 0 0
vt 0.7071068 0.5
vt 0.7071068 -0.5
vt -0.7071068 0.5
vt 0.7071068 -0.5
vt -0.7071068 -0.5
vt -0.7071068 0.5
vt 0.5 -0.5
vt -0.5 -0.5
vt -0.5 0.5
vt 0 0
vt 0 0
vt 0 0
vt 0 0
vt 0 0
vt 0 0
vt 0 0
vt 0 0
vt 0 0

g 2_1
usemtl Default_Prototype
f 3/3/3 2/2/2 1/1/1
f 6/6/6 5/5/5 4/4/4
f 9/9/9 8/8/8 7/7/7
f 12/12/12 11/11/11 10/10/10
f 15/15/15 14/14/14 13/13/13
f 18/18/18 17/17/17 16/16/16
f 21/21/21 20/20/20 19/19/19
f 24/24/24 23/23/23 22/22/22

