# Exported from ProBuilder
# http://www.procore3d.com/probuilder
# 4/6/2019 12:14:54 PM

mtllib ./3_1.mtl
o 3_1

g 3_1
v 0.5 -0.5 0.5
v -0.5 0.5 0.5
v 0.5 -0.5 -0.5
v -0.5 0.5 0.5
v -0.5 -0.5 -0.5
v 0.5 -0.5 -0.5

vn 0.7071068 0.7071068 0
vn 0.7071068 0.7071068 0
vn 0.7071068 0.7071068 0
vn 0 0.7071068 -0.7071068
vn 0 0.7071068 -0.7071068
vn 0 0.7071068 -0.7071068

vt -0.7071068 0.5
vt 0.7071068 0.5
vt -0.7071068 -0.5
vt 0.5 0.7071068
vt 0.5 -0.7071068
vt -0.5 -0.7071068

g 3_1
usemtl Default_Prototype
f 3/3/3 2/2/2 1/1/1
f 6/6/6 5/5/5 4/4/4

